<svg width="162" height="161" viewBox="0 0 162 161" fill="none" xmlns="http://www.w3.org/2000/svg">
    <path
        d="M1.70544 26C1.70544 11.6406 13.346 0 27.7054 0H134.295C148.654 0 160.295 11.6406 160.295 26V132.589C160.295 146.948 148.654 158.589 134.295 158.589H27.7055C13.3461 158.589 1.70544 146.949 1.70544 132.589V26Z"
        fill="#7AE326" />
    <path
        d="M38 124.75C37.2917 124.75 36.7917 124.375 36.5 123.625C36.25 122.833 36.125 122.146 36.125 121.562C36.125 120.146 36.9167 119.375 38.5 119.25C39.875 119.125 41.3958 118.938 43.0625 118.688C44.7292 118.396 46.2083 117.979 47.5 117.438C48.7917 116.896 49.5 116.167 49.625 115.25L60.25 46.5625C60.25 45.1042 59.7708 44.0417 58.8125 43.375C57.8542 42.7083 56.7083 42.2708 55.375 42.0625C54.0417 41.8125 52.7917 41.6458 51.625 41.5625C50.9583 41.4792 50.0417 41.375 48.875 41.25C47.75 41.0833 47.1875 40.7292 47.1875 40.1875C47.1875 39.3125 47.4583 38.4167 48 37.5C48.5417 36.5417 49.1875 36.0625 49.9375 36.0625H90.375C97.625 36.0625 103.562 36.6875 108.188 37.9375C112.854 39.1875 116.479 40.875 119.062 43C121.646 45.0833 123.438 47.4167 124.438 50C125.438 52.5833 125.938 55.2292 125.938 57.9375C125.938 63.1042 124.979 67.6875 123.062 71.6875C121.146 75.6875 118.354 79.0625 114.688 81.8125C111.021 84.5208 106.542 86.5833 101.25 88C95.9583 89.375 89.9583 90.0625 83.25 90.0625H75.0625L71.5 113.938C71.5 115.229 72 116.229 73 116.938C74.0417 117.646 75.5 118.167 77.375 118.5C79.2917 118.792 81.5625 119.042 84.1875 119.25C85.0208 119.292 85.5833 119.5 85.875 119.875C86.1667 120.25 86.3125 120.917 86.3125 121.875C86.3125 122.542 86.0625 123.188 85.5625 123.812C85.0625 124.438 84.4583 124.75 83.75 124.75H38ZM75.375 84.6875H80.0625C87.6042 84.6875 93.375 82.5 97.375 78.125C101.375 73.75 103.375 66.9792 103.375 57.8125C103.375 54.5208 102.792 51.6667 101.625 49.25C100.458 46.7917 98.4375 44.8958 95.5625 43.5625C92.7292 42.2292 88.7292 41.5625 83.5625 41.5625H82L75.375 84.6875Z"
        fill="white" />
</svg>