<svg width="441" height="126" viewBox="0 0 441 126" fill="none" xmlns="http://www.w3.org/2000/svg">
    <path
        d="M2.625 97C1.91667 97 1.41667 96.625 1.125 95.875C0.875 95.0833 0.75 94.3958 0.75 93.8125C0.75 92.3958 1.54167 91.625 3.125 91.5C4.5 91.375 6.02083 91.1875 7.6875 90.9375C9.35417 90.6458 10.8333 90.2292 12.125 89.6875C13.4167 89.1458 14.125 88.4167 14.25 87.5L24.875 18.8125C24.875 17.3542 24.3958 16.2917 23.4375 15.625C22.4792 14.9583 21.3333 14.5208 20 14.3125C18.6667 14.0625 17.4167 13.8958 16.25 13.8125C15.5833 13.7292 14.6667 13.625 13.5 13.5C12.375 13.3333 11.8125 12.9792 11.8125 12.4375C11.8125 11.5625 12.0833 10.6667 12.625 9.75C13.1667 8.79167 13.8125 8.3125 14.5625 8.3125H55C62.25 8.3125 68.1875 8.9375 72.8125 10.1875C77.4792 11.4375 81.1042 13.125 83.6875 15.25C86.2708 17.3333 88.0625 19.6667 89.0625 22.25C90.0625 24.8333 90.5625 27.4792 90.5625 30.1875C90.5625 35.3542 89.6042 39.9375 87.6875 43.9375C85.7708 47.9375 82.9792 51.3125 79.3125 54.0625C75.6458 56.7708 71.1667 58.8333 65.875 60.25C60.5833 61.625 54.5833 62.3125 47.875 62.3125H39.6875L36.125 86.1875C36.125 87.4792 36.625 88.4792 37.625 89.1875C38.6667 89.8958 40.125 90.4167 42 90.75C43.9167 91.0417 46.1875 91.2917 48.8125 91.5C49.6458 91.5417 50.2083 91.75 50.5 92.125C50.7917 92.5 50.9375 93.1667 50.9375 94.125C50.9375 94.7917 50.6875 95.4375 50.1875 96.0625C49.6875 96.6875 49.0833 97 48.375 97H2.625ZM40 56.9375H44.6875C52.2292 56.9375 58 54.75 62 50.375C66 46 68 39.2292 68 30.0625C68 26.7708 67.4167 23.9167 66.25 21.5C65.0833 19.0417 63.0625 17.1458 60.1875 15.8125C57.3542 14.4792 53.3542 13.8125 48.1875 13.8125H46.625L40 56.9375ZM125.688 46.3125C126.646 45.1458 127.875 43.8542 129.375 42.4375C130.875 40.9792 132.583 39.5833 134.5 38.25C136.417 36.9167 138.5 35.8125 140.75 34.9375C143.042 34.0625 145.417 33.625 147.875 33.625C151.625 33.625 154.375 34.625 156.125 36.625C157.875 38.5833 158.75 41.1042 158.75 44.1875C158.75 47.4375 158.062 50.125 156.688 52.25C155.354 54.375 153.458 55.9792 151 57.0625C148.583 58.1042 145.771 58.625 142.562 58.625L139.188 45.75C137.521 45.75 135.833 46.0833 134.125 46.75C132.417 47.4167 130.833 48.2292 129.375 49.1875C127.917 50.1458 126.688 51.0625 125.688 51.9375L118.562 97H99.0625L106.75 48.375C106.875 47.6667 106.938 47.0625 106.938 46.5625C106.938 44.6458 106.417 43.3333 105.375 42.625C104.375 41.875 103.208 41.4167 101.875 41.25C100.542 41.0417 99.4167 40.8125 98.5 40.5625C97.7083 40.1875 97.3125 39.5625 97.3125 38.6875C97.3125 37.8542 97.5 37.1042 97.875 36.4375C98.2917 35.7292 98.75 35.3542 99.25 35.3125C105.083 34.9375 110.208 34.75 114.625 34.75C119.042 34.7083 122.5 34.6875 125 34.6875C125.333 34.6875 125.667 34.8125 126 35.0625C126.375 35.3125 126.562 35.8125 126.562 36.5625C126.562 36.5625 126.5 37.3542 126.375 38.9375C126.25 40.4792 126.021 42.9375 125.688 46.3125ZM227 47.6875C227 51.1875 225.833 54.2917 223.5 57C221.167 59.6667 217.958 61.9792 213.875 63.9375C209.833 65.8958 205.208 67.5208 200 68.8125C194.833 70.0625 189.375 70.9792 183.625 71.5625C183.583 72.0208 183.562 72.5 183.562 73C183.562 73.5 183.562 74 183.562 74.5C183.562 78.375 184.333 81.4167 185.875 83.625C187.458 85.7917 189.438 87.3125 191.812 88.1875C194.229 89.0625 196.667 89.5 199.125 89.5C203.042 89.5 206.646 88.9375 209.938 87.8125C213.229 86.6458 216.646 85.0208 220.188 82.9375C220.354 82.8542 220.5 82.7708 220.625 82.6875C220.792 82.6042 220.958 82.5625 221.125 82.5625C221.458 82.5625 221.979 82.9792 222.688 83.8125C223.438 84.6458 223.812 85.3125 223.812 85.8125C223.812 85.8542 223.812 85.8958 223.812 85.9375C223.854 85.9792 223.875 86.0208 223.875 86.0625C223.875 86.2292 223.833 86.375 223.75 86.5C223.667 86.5833 223.583 86.6667 223.5 86.75C219.5 90.6667 214.792 93.6667 209.375 95.75C204 97.7917 198.458 98.8125 192.75 98.8125C183.458 98.8125 176.208 96.4792 171 91.8125C165.833 87.1458 163.25 80.9375 163.25 73.1875C163.25 67.5625 164.333 62.3542 166.5 57.5625C168.667 52.7708 171.625 48.5833 175.375 45C179.167 41.4167 183.521 38.625 188.438 36.625C193.354 34.625 198.562 33.625 204.062 33.625C209.812 33.625 214.354 34.3958 217.688 35.9375C221.062 37.4375 223.458 39.2917 224.875 41.5C226.292 43.6667 227 45.7292 227 47.6875ZM200.938 38.6875C197.104 38.6875 193.521 41.1458 190.188 46.0625C186.854 50.9792 184.771 57.875 183.938 66.75C191.229 65.1667 197.021 62.7083 201.312 59.375C205.646 56 207.812 51.5417 207.812 46C207.812 44.0417 207.333 42.3333 206.375 40.875C205.417 39.4167 203.604 38.6875 200.938 38.6875ZM225.562 123.625C224.979 123.625 224.562 123.354 224.312 122.812C224.021 122.312 223.875 121.833 223.875 121.375C223.875 120.292 224.104 119.604 224.562 119.312C224.979 119.021 225.583 118.833 226.375 118.75C227.417 118.625 228.542 118.438 229.75 118.188C230.958 117.938 232.042 117.396 233 116.562C234 115.771 234.625 114.479 234.875 112.688L244.25 48.375C244.292 48.0833 244.312 47.8125 244.312 47.5625C244.354 47.2708 244.375 47 244.375 46.75C244.375 44.9167 243.938 43.6458 243.062 42.9375C242.229 42.1875 241.229 41.7083 240.062 41.5C238.896 41.2917 237.833 41.0625 236.875 40.8125C236.292 40.6458 235.792 40.4167 235.375 40.125C235 39.8333 234.812 39.3542 234.812 38.6875C234.812 38.3542 234.958 37.7292 235.25 36.8125C235.583 35.8542 236.083 35.3542 236.75 35.3125C242.583 35.0625 247.812 34.8958 252.438 34.8125C257.062 34.7292 260.625 34.6875 263.125 34.6875C263.458 34.6875 263.792 34.8125 264.125 35.0625C264.5 35.3125 264.688 35.8125 264.688 36.5625L263.25 46.0625C265.375 43.1875 267.75 40.8542 270.375 39.0625C273 37.2292 275.708 35.875 278.5 35C281.292 34.125 283.938 33.6875 286.438 33.6875C292.021 33.6875 296.479 34.8958 299.812 37.3125C303.188 39.6875 305.625 42.7708 307.125 46.5625C308.625 50.3125 309.375 54.25 309.375 58.375C309.375 63.2083 308.521 68.0208 306.812 72.8125C305.146 77.5625 302.625 81.9167 299.25 85.875C295.875 89.7917 291.646 92.9375 286.562 95.3125C281.521 97.6875 275.625 98.875 268.875 98.875C266.708 98.875 264.542 98.7292 262.375 98.4375C260.208 98.1875 258.104 97.8542 256.062 97.4375L255.562 103.75L254 115C254 115.833 254.542 116.5 255.625 117C256.708 117.5 258.042 117.875 259.625 118.125C261.25 118.375 262.854 118.583 264.438 118.75C265.646 118.875 266.25 119.438 266.25 120.438C266.25 120.729 266.062 121.333 265.688 122.25C265.354 123.167 264.688 123.625 263.688 123.625H225.562ZM267.438 92.9375C270.812 92.9375 273.771 92 276.312 90.125C278.854 88.25 280.958 85.6875 282.625 82.4375C284.333 79.1458 285.604 75.3958 286.438 71.1875C287.271 66.9375 287.688 62.4792 287.688 57.8125C287.688 54.7708 287.396 52.1458 286.812 49.9375C286.229 47.6875 285.25 45.9583 283.875 44.75C282.542 43.5417 280.688 42.9375 278.312 42.9375C276.396 42.9375 274.458 43.4167 272.5 44.375C270.583 45.2917 268.792 46.4583 267.125 47.875C265.5 49.25 264.167 50.6458 263.125 52.0625L257.375 88C257.458 88.9583 258.542 90.0208 260.625 91.1875C262.708 92.3542 264.979 92.9375 267.438 92.9375ZM323.812 85.75C324.062 84.2083 324.458 81.75 325 78.375C325.583 74.9583 326.229 70.9792 326.938 66.4375C327.688 61.8958 328.458 57.1458 329.25 52.1875C330.083 47.1875 330.896 42.3125 331.688 37.5625C332.479 32.8125 333.188 28.5 333.812 24.625C334.438 20.7083 334.938 17.6042 335.312 15.3125C335.688 12.9792 335.875 11.7917 335.875 11.75C335.875 10.25 335.333 9.20833 334.25 8.625C333.208 8 332 7.58333 330.625 7.375C329.25 7.125 328.021 6.8125 326.938 6.4375C325.896 6.0625 325.375 5.3125 325.375 4.1875C325.375 3.8125 325.562 3.1875 325.938 2.3125C326.312 1.39583 326.833 0.916667 327.5 0.875C333.375 0.583333 338.729 0.416667 343.562 0.375C348.438 0.291667 352.125 0.25 354.625 0.25C354.958 0.25 355.292 0.375 355.625 0.625C356 0.875 356.188 1.375 356.188 2.125C356.188 2.20833 356 3.45833 355.625 5.875C355.25 8.29167 354.75 11.5208 354.125 15.5625C353.5 19.6042 352.792 24.1458 352 29.1875C351.25 34.1875 350.458 39.3542 349.625 44.6875C348.792 50.0208 347.979 55.2083 347.188 60.25C346.438 65.2917 345.75 69.8542 345.125 73.9375C344.5 78.0208 344 81.2917 343.625 83.75C343.25 86.2083 343.062 87.5208 343.062 87.6875C343.062 88.6042 343.312 89.375 343.812 90C344.354 90.5833 345.333 90.875 346.75 90.875C347.625 90.875 348.521 90.7917 349.438 90.625C350.354 90.4167 351.125 90.3125 351.75 90.3125C352.125 90.3125 352.479 90.4167 352.812 90.625C353.188 90.7917 353.375 91.3333 353.375 92.25C353.375 92.75 353.25 93.2708 353 93.8125C352.792 94.3125 352.396 94.6667 351.812 94.875C349.229 95.6667 346.354 96.3542 343.188 96.9375C340.062 97.5208 336.5 97.8125 332.5 97.8125C329.917 97.8125 327.958 97.3333 326.625 96.375C325.333 95.4167 324.458 94.3125 324 93.0625C323.542 91.7708 323.312 90.6667 323.312 89.75C323.312 89.0833 323.354 88.4583 323.438 87.875C323.562 87.25 323.688 86.5417 323.812 85.75ZM376.188 125.062C373.604 125.062 371.229 124.458 369.062 123.25C366.896 122.042 365.812 120.125 365.812 117.5C365.812 115.208 366.646 113.417 368.312 112.125C369.979 110.875 371.979 110.25 374.312 110.25C376.688 110.25 378.729 110.438 380.438 110.812C382.146 111.188 383.833 111.375 385.5 111.375C387.333 111.375 389.146 110.854 390.938 109.812C392.771 108.812 394.5 107.583 396.125 106.125C397.75 104.708 399.188 103.312 400.438 101.938C401.729 100.562 402.75 99.5 403.5 98.75C399.125 98.75 395.771 98.5625 393.438 98.1875C391.104 97.8125 389.5 97.2083 388.625 96.375C387.75 95.5417 387.312 94.4167 387.312 93C387.312 88.0833 386.917 83.1667 386.125 78.25C385.333 73.2917 384.312 68.6667 383.062 64.375C381.854 60.0417 380.562 56.3333 379.188 53.25C377.854 50.1667 376.625 48.0625 375.5 46.9375C375.083 46.4792 374.521 46.0417 373.812 45.625C373.104 45.2083 372.458 45 371.875 45C371.292 45 370.729 45.2708 370.188 45.8125C369.646 46.3125 369.083 46.9583 368.5 47.75C367.917 48.5833 367.354 49 366.812 49C366.396 49 365.938 48.7292 365.438 48.1875C364.979 47.6042 364.75 46.7917 364.75 45.75C364.75 45.2083 364.875 44.6875 365.125 44.1875C366.583 41.5625 368.417 39.4792 370.625 37.9375C372.833 36.3958 375.042 35.2917 377.25 34.625C379.458 33.9583 381.25 33.625 382.625 33.625C385.25 33.625 387.542 34.1667 389.5 35.25C391.458 36.2917 393.104 38.0625 394.438 40.5625C395.771 42.7708 397.021 45.7917 398.188 49.625C399.396 53.4167 400.458 57.5833 401.375 62.125C402.333 66.6667 403.083 71.1875 403.625 75.6875C404.167 80.1875 404.438 84.25 404.438 87.875C404.438 89.2917 404.458 90.9583 404.5 92.875C404.583 94.75 404.583 96.3542 404.5 97.6875C405.167 96.8958 406.25 95.5625 407.75 93.6875C409.292 91.8125 410.979 89.5833 412.812 87C414.646 84.375 416.417 81.5625 418.125 78.5625C419.833 75.5625 421.25 72.5417 422.375 69.5C423.5 66.4167 424.062 63.5 424.062 60.75C424.062 58.4583 423.688 56.3958 422.938 54.5625C422.229 52.7292 421.5 50.8542 420.75 48.9375C420 47.0208 419.625 44.8333 419.625 42.375C419.625 39.9167 420.5 37.8542 422.25 36.1875C424.042 34.4792 426.479 33.625 429.562 33.625C432.271 33.625 434.458 34.4375 436.125 36.0625C437.833 37.6458 439.062 39.6458 439.812 42.0625C440.604 44.4792 441 46.9375 441 49.4375C441 54.1458 440.042 58.6875 438.125 63.0625C436.208 67.4375 433.771 71.6458 430.812 75.6875C427.896 79.6875 424.833 83.4792 421.625 87.0625C418.417 90.6042 415.521 93.9167 412.938 97C410.188 100.25 407.271 103.521 404.188 106.812C401.104 110.104 397.938 113.125 394.688 115.875C391.479 118.667 388.292 120.896 385.125 122.562C382 124.229 379.021 125.062 376.188 125.062Z"
        fill="#7ae326" />
</svg>