<svg version="1.1" xmlns="http://www.w3.org/2000/svg" viewBox="0 0 178.53964086527682 85.84500839704702"
    width="178.53964086527682" height="85.84500839704702">
    <!-- svg-source:excalidraw -->
    <metadata></metadata>
    <defs>
        <style class="style-fonts">
        </style>
    </defs>

    <g stroke-linecap="round"
        transform="translate(7.355950675237182 17.276575564683014) rotate(344.61149642645984 81.91386975740124 25.6459286338405)">
        <path
            d="M134.05 6.66 C144.05 8.27, 151.19 10.14, 156.32 13.39 C161.45 16.65, 165.54 22.1, 164.83 26.17 C164.11 30.24, 158.74 33.95, 152.03 37.82 C145.31 41.68, 135.53 46.99, 124.54 49.36 C113.55 51.72, 98.58 52.38, 86.1 52.01 C73.63 51.64, 60.85 49.17, 49.68 47.13 C38.5 45.09, 27.26 42.62, 19.03 39.79 C10.8 36.95, 2.81 33.69, 0.29 30.11 C-2.24 26.54, -0.28 22.09, 3.88 18.34 C8.04 14.59, 16.47 10.53, 25.26 7.62 C34.05 4.7, 44.58 2.2, 56.62 0.86 C68.66 -0.48, 81.47 -2.38, 97.5 -0.42 C113.53 1.54, 142.05 9.05, 152.79 12.63 C163.54 16.21, 163.22 20.88, 161.98 21.05 M88.05 1.78 C100.1 1.47, 111.16 0.66, 122.31 2.72 C133.47 4.78, 148.3 10.65, 154.98 14.14 C161.66 17.63, 162.34 19.98, 162.42 23.66 C162.49 27.34, 160.66 32.82, 155.45 36.22 C150.24 39.62, 140.62 41.15, 131.14 44.06 C121.66 46.96, 110.63 52.73, 98.54 53.66 C86.45 54.59, 71.29 51.03, 58.61 49.64 C45.93 48.25, 31.81 47.92, 22.45 45.32 C13.1 42.73, 6.09 38.07, 2.47 34.06 C-1.16 30.04, -2.05 25.06, 0.7 21.22 C3.45 17.38, 10.94 14.2, 18.97 11.03 C27.01 7.86, 37.08 4.25, 48.9 2.21 C60.72 0.16, 83.81 -1.33, 89.91 -1.23 C96.01 -1.13, 85.75 2.32, 85.49 2.8"
            stroke="#7ae326" stroke-width="1.2" fill="none"></path>
    </g>
</svg>